<svg width="980" height="551" xmlns="http://www.w3.org/2000/svg" xmlns:xlink="http://www.w3.org/1999/xlink">
<path fill="#ff595e" d="M 524.69 199.45 Q 524.69 199.45 520.90 204.07 517.11 208.68 510.61 213.44 504.10 218.20 495.12 225.65 486.14 233.11 479.41 239.55 472.69 246.00 468.84 249.77 464.99 253.54 461.32 257.92 457.66 262.29 455.57 266.29 453.47 270.28 452.53 273.10 451.58 275.91 451.21 279.38 450.84 282.84 451.96 288.75 453.07 294.65 454.56 299.10 456.06 303.55 460.27 311.86 464.49 320.16 468.95 327.55 473.42 334.93 478.62 342.19 483.83 349.45 487.54 353.87 491.25 358.30 495.17 361.25 499.08 364.20 504.57 366.60 510.07 369.00 514.03 370.19 517.99 371.39 522.72 371.83 527.45 372.27 529.86 372.25 532.26 372.23 535.98 369.31 539.69 366.40 542.88 356.57 546.07 346.74 547.84 335.71 549.62 324.68 548.93 305.42 548.25 286.16 546.59 273.23 544.93 260.31 532.05 235.93 519.16 211.55 510.06 197.63 500.96 183.70 485.56 172.00 470.15 160.29 458.67 153.86 447.19 147.43 439.13 144.58 431.07 141.74 423.20 138.32 415.33 134.90 415.33 134.89 415.33 134.89 415.33 134.88 415.33 134.88 424.54 134.54 433.74 134.20 442.42 137.32 451.09 140.45 463.05 147.20 475.02 153.94 491.29 166.58 507.56 179.22 516.90 193.53 526.25 207.84 539.53 233.49 552.82 259.13 554.53 272.51 556.24 285.88 556.88 305.91 557.51 325.94 555.57 337.63 553.63 349.33 549.55 360.57 545.47 371.81 542.04 374.95 538.61 378.10 535.55 379.15 532.49 380.19 529.57 380.21 526.65 380.23 521.16 379.64 515.67 379.05 511.24 377.67 506.81 376.30 500.53 373.44 494.25 370.57 489.70 367.02 485.15 363.46 481.24 358.78 477.32 354.11 471.94 346.59 466.57 339.07 461.96 331.42 457.35 323.77 452.91 314.92 448.46 306.08 446.83 301.06 445.19 296.04 444.05 289.02 442.90 282.00 443.46 277.67 444.01 273.34 445.21 269.93 446.42 266.52 448.97 261.85 451.52 257.18 455.45 252.50 459.39 247.83 463.27 244.03 467.15 240.23 474.09 233.59 481.03 226.95 490.21 219.35 499.38 211.74 506.18 206.78 512.98 201.83 518.83 200.63 524.68 199.44 524.68 199.44 Z"></path><path fill="#ff595e" d="M 534.31 238.20 Q 534.31 238.20 535.51 240.86 536.71 243.53 535.44 246.05 534.17 248.57 533.75 249.17 533.34 249.76 533.05 250.15 532.76 250.54 532.39 250.84 532.02 251.15 531.59 251.36 531.15 251.57 530.68 251.67 530.21 251.78 529.73 251.76 529.25 251.74 528.78 251.61 528.32 251.48 527.90 251.25 527.48 251.01 527.13 250.68 526.78 250.35 526.52 249.94 526.26 249.54 526.10 249.08 525.94 248.63 525.90 248.15 525.86 247.67 525.93 247.19 526.00 246.71 526.19 246.27 526.37 245.82 526.88 242.71 527.38 239.59 529.41 234.52 531.45 229.44 534.59 222.46 537.73 215.49 540.86 208.89 543.99 202.30 546.57 196.98 549.15 191.66 551.41 186.99 553.68 182.32 555.39 178.84 557.10 175.36 558.06 173.32 559.02 171.29 561.42 170.73 563.81 170.16 563.80 170.16 563.80 170.16 563.80 170.16 563.79 170.16 565.02 172.43 566.26 174.69 565.27 176.80 564.28 178.90 562.58 182.35 560.87 185.81 558.61 190.48 556.35 195.15 553.78 200.44 551.22 205.73 548.12 212.25 545.02 218.77 541.94 225.60 538.87 232.44 536.99 237.05 535.10 241.67 534.22 245.72 533.34 249.76 533.05 250.15 532.76 250.54 532.39 250.84 532.02 251.15 531.59 251.36 531.16 251.57 530.68 251.67 530.21 251.78 529.73 251.76 529.25 251.74 528.78 251.61 528.32 251.48 527.90 251.25 527.48 251.01 527.13 250.68 526.78 250.35 526.52 249.94 526.26 249.54 526.10 249.08 525.94 248.63 525.90 248.15 525.86 247.67 525.93 247.19 526.00 246.71 526.19 246.27 526.37 245.82 526.79 245.23 527.21 244.63 528.17 242.78 529.14 240.94 531.72 239.57 534.29 238.19 534.30 238.20 Z"></path><path fill="#ff595e" d="M 433.15 173.17 Q 433.15 173.17 433.15 173.17 433.15 173.18 433.14 173.18 433.14 173.18 433.15 173.18 Z"></path>
</svg>